<?xml version="1.0" encoding="UTF-8" standalone="no"?>
<!DOCTYPE svg PUBLIC "-//W3C//DTD SVG 1.1//EN"
 "http://www.w3.org/Graphics/SVG/1.1/DTD/svg11.dtd">
<!-- Generated by graphviz version 2.30.1 (20201013.1554)
 -->
<!-- Title: snakemake_dag Pages: 1 -->
<svg width="1048pt" height="476pt"
 viewBox="0.00 0.00 1048.46 476.00" xmlns="http://www.w3.org/2000/svg" xmlns:xlink="http://www.w3.org/1999/xlink">
<g id="graph0" class="graph" transform="scale(1 1) rotate(0) translate(4 472)">
<title>snakemake_dag</title>
<polygon fill="white" stroke="white" points="-4,5 -4,-472 1045.46,-472 1045.46,5 -4,5"/>
<!-- 0 -->
<g id="node1" class="node"><title>0</title>
<path fill="none" stroke="#569ad8" stroke-width="2" d="M531.25,-36C531.25,-36 430.75,-36 430.75,-36 424.75,-36 418.75,-30 418.75,-24 418.75,-24 418.75,-12 418.75,-12 418.75,-6 424.75,-0 430.75,-0 430.75,-0 531.25,-0 531.25,-0 537.25,-0 543.25,-6 543.25,-12 543.25,-12 543.25,-24 543.25,-24 543.25,-30 537.25,-36 531.25,-36"/>
<text text-anchor="middle" x="481" y="-15.5" font-family="sans" font-size="10.00">cleanup_model_folder</text>
</g>
<!-- 1 -->
<g id="node2" class="node"><title>1</title>
<path fill="none" stroke="#d85656" stroke-width="2" d="M512,-180C512,-180 450,-180 450,-180 444,-180 438,-174 438,-168 438,-168 438,-156 438,-156 438,-150 444,-144 450,-144 450,-144 512,-144 512,-144 518,-144 524,-150 524,-156 524,-156 524,-168 524,-168 524,-174 518,-180 512,-180"/>
<text text-anchor="middle" x="481" y="-159.5" font-family="sans" font-size="10.00">run_delft3dfm</text>
</g>
<!-- 1&#45;&gt;0 -->
<g id="edge1" class="edge"><title>1&#45;&gt;0</title>
<path fill="none" stroke="grey" stroke-width="2" d="M463.267,-143.599C454.761,-133.998 445.468,-121.336 441,-108 435.918,-92.8287 435.918,-87.1713 441,-72 444.351,-61.9984 450.416,-52.3756 456.828,-44.1385"/>
<polygon fill="grey" stroke="grey" points="459.561,-46.3261 463.267,-36.4006 454.18,-41.8485 459.561,-46.3261"/>
</g>
<!-- 14 -->
<g id="node15" class="node"><title>14</title>
<path fill="none" stroke="#567bd8" stroke-width="2" d="M618,-108C618,-108 462,-108 462,-108 456,-108 450,-102 450,-96 450,-96 450,-84 450,-84 450,-78 456,-72 462,-72 462,-72 618,-72 618,-72 624,-72 630,-78 630,-84 630,-84 630,-96 630,-96 630,-102 624,-108 618,-108"/>
<text text-anchor="middle" x="540" y="-87.5" font-family="sans" font-size="10.00">move_raw_data_to_output_folder</text>
</g>
<!-- 1&#45;&gt;14 -->
<g id="edge28" class="edge"><title>1&#45;&gt;14</title>
<path fill="none" stroke="grey" stroke-width="2" d="M495.584,-143.697C502.658,-135.305 511.283,-125.07 519.045,-115.861"/>
<polygon fill="grey" stroke="grey" points="521.815,-118.006 525.583,-108.104 516.463,-113.495 521.815,-118.006"/>
</g>
<!-- 2 -->
<g id="node3" class="node"><title>2</title>
<path fill="none" stroke="#56d86b" stroke-width="2" d="M629,-468C629,-468 561,-468 561,-468 555,-468 549,-462 549,-456 549,-456 549,-444 549,-444 549,-438 555,-432 561,-432 561,-432 629,-432 629,-432 635,-432 641,-438 641,-444 641,-444 641,-456 641,-456 641,-462 635,-468 629,-468"/>
<text text-anchor="middle" x="595" y="-447.5" font-family="sans" font-size="10.00">set_date_range</text>
</g>
<!-- 2&#45;&gt;1 -->
<g id="edge3" class="edge"><title>2&#45;&gt;1</title>
<path fill="none" stroke="grey" stroke-width="2" d="M641.174,-443.669C695.74,-436.307 781.598,-421.026 801,-396 816.45,-376.072 794.301,-300.463 786,-288 729.914,-203.79 605.817,-176.275 534.405,-167.309"/>
<polygon fill="grey" stroke="grey" points="534.606,-163.809 524.265,-166.117 533.788,-170.761 534.606,-163.809"/>
</g>
<!-- 3 -->
<g id="node4" class="node"><title>3</title>
<path fill="none" stroke="#d89c56" stroke-width="2" d="M972,-396C972,-396 898,-396 898,-396 892,-396 886,-390 886,-384 886,-384 886,-372 886,-372 886,-366 892,-360 898,-360 898,-360 972,-360 972,-360 978,-360 984,-366 984,-372 984,-372 984,-384 984,-384 984,-390 978,-396 972,-396"/>
<text text-anchor="middle" x="935" y="-375.5" font-family="sans" font-size="10.00">update_mdu_file</text>
</g>
<!-- 2&#45;&gt;3 -->
<g id="edge14" class="edge"><title>2&#45;&gt;3</title>
<path fill="none" stroke="grey" stroke-width="2" d="M641.292,-441.23C696.474,-431.717 791.363,-414.567 872,-396 873.273,-395.707 874.559,-395.406 875.855,-395.098"/>
<polygon fill="grey" stroke="grey" points="877.033,-398.412 885.908,-392.626 875.362,-391.615 877.033,-398.412"/>
</g>
<!-- 4 -->
<g id="node5" class="node"><title>4</title>
<path fill="none" stroke="#56d8a9" stroke-width="2" d="M78.25,-396C78.25,-396 11.75,-396 11.75,-396 5.75,-396 -0.25,-390 -0.25,-384 -0.25,-384 -0.25,-372 -0.25,-372 -0.25,-366 5.75,-360 11.75,-360 11.75,-360 78.25,-360 78.25,-360 84.25,-360 90.25,-366 90.25,-372 90.25,-372 90.25,-384 90.25,-384 90.25,-390 84.25,-396 78.25,-396"/>
<text text-anchor="middle" x="45" y="-375.5" font-family="sans" font-size="10.00">download_era5</text>
</g>
<!-- 2&#45;&gt;4 -->
<g id="edge15" class="edge"><title>2&#45;&gt;4</title>
<path fill="none" stroke="grey" stroke-width="2" d="M548.709,-447.121C462.095,-442.943 269.702,-430.539 100.333,-396.055"/>
<polygon fill="grey" stroke="grey" points="100.998,-392.618 90.4966,-394.022 99.581,-399.473 100.998,-392.618"/>
</g>
<!-- 5 -->
<g id="node6" class="node"><title>5</title>
<path fill="none" stroke="#d87556" stroke-width="2" d="M243.25,-396C243.25,-396 120.75,-396 120.75,-396 114.75,-396 108.75,-390 108.75,-384 108.75,-384 108.75,-372 108.75,-372 108.75,-366 114.75,-360 120.75,-360 120.75,-360 243.25,-360 243.25,-360 249.25,-360 255.25,-366 255.25,-372 255.25,-372 255.25,-384 255.25,-384 255.25,-390 249.25,-396 243.25,-396"/>
<text text-anchor="middle" x="182" y="-375.5" font-family="sans" font-size="10.00">download_cmems_physics</text>
</g>
<!-- 2&#45;&gt;5 -->
<g id="edge16" class="edge"><title>2&#45;&gt;5</title>
<path fill="none" stroke="grey" stroke-width="2" d="M548.983,-442.245C487.045,-433.013 373.194,-415.55 265.367,-396.022"/>
<polygon fill="grey" stroke="grey" points="265.753,-392.535 255.287,-394.188 264.499,-399.422 265.753,-392.535"/>
</g>
<!-- 6 -->
<g id="node7" class="node"><title>6</title>
<path fill="none" stroke="#d8bc56" stroke-width="2" d="M454,-396C454,-396 286,-396 286,-396 280,-396 274,-390 274,-384 274,-384 274,-372 274,-372 274,-366 280,-360 286,-360 286,-360 454,-360 454,-360 460,-360 466,-366 466,-372 466,-372 466,-384 466,-384 466,-390 460,-396 454,-396"/>
<text text-anchor="middle" x="370" y="-375.5" font-family="sans" font-size="10.00">download_cmems_biogeochemistry</text>
</g>
<!-- 2&#45;&gt;6 -->
<g id="edge17" class="edge"><title>2&#45;&gt;6</title>
<path fill="none" stroke="grey" stroke-width="2" d="M548.925,-434.666C515.879,-424.385 470.92,-410.397 434.337,-399.016"/>
<polygon fill="grey" stroke="grey" points="435.333,-395.66 424.744,-396.032 433.253,-402.344 435.333,-395.66"/>
</g>
<!-- 13 -->
<g id="node14" class="node"><title>13</title>
<path fill="none" stroke="#56c1d8" stroke-width="2" d="M1013,-324C1013,-324 851,-324 851,-324 845,-324 839,-318 839,-312 839,-312 839,-300 839,-300 839,-294 845,-288 851,-288 851,-288 1013,-288 1013,-288 1019,-288 1025,-294 1025,-300 1025,-300 1025,-312 1025,-312 1025,-318 1019,-324 1013,-324"/>
<text text-anchor="middle" x="932" y="-303.5" font-family="sans" font-size="10.00">workaround_update_RadSurf_daily</text>
</g>
<!-- 2&#45;&gt;13 -->
<g id="edge26" class="edge"><title>2&#45;&gt;13</title>
<path fill="none" stroke="grey" stroke-width="2" d="M641.433,-445.802C691.426,-440.786 772.103,-428.049 834,-396 842.406,-391.648 880.575,-356.042 906.721,-331.208"/>
<polygon fill="grey" stroke="grey" points="909.243,-333.64 914.072,-324.21 904.416,-328.57 909.243,-333.64"/>
</g>
<!-- 3&#45;&gt;1 -->
<g id="edge4" class="edge"><title>3&#45;&gt;1</title>
<path fill="none" stroke="grey" stroke-width="2" d="M984.121,-362.899C1003.15,-354.77 1022.98,-342.398 1034,-324 1042.22,-310.274 1042.81,-301.357 1034,-288 978.926,-204.478 662.615,-174.782 534.682,-166.093"/>
<polygon fill="grey" stroke="grey" points="534.559,-162.578 524.349,-165.41 534.096,-169.562 534.559,-162.578"/>
</g>
<!-- 3&#45;&gt;13 -->
<g id="edge27" class="edge"><title>3&#45;&gt;13</title>
<path fill="none" stroke="grey" stroke-width="2" d="M934.258,-359.697C933.928,-351.983 933.531,-342.712 933.162,-334.112"/>
<polygon fill="grey" stroke="grey" points="936.658,-333.945 932.733,-324.104 929.665,-334.245 936.658,-333.945"/>
</g>
<!-- 4&#45;&gt;1 -->
<g id="edge5" class="edge"><title>4&#45;&gt;1</title>
<path fill="none" stroke="grey" stroke-width="2" d="M55.33,-359.787C77.0072,-325.446 130.915,-248.902 199,-216 273.046,-180.217 368.865,-168.544 427.582,-164.766"/>
<polygon fill="grey" stroke="grey" points="427.967,-168.25 437.744,-164.168 427.556,-161.262 427.967,-168.25"/>
</g>
<!-- 10 -->
<g id="node11" class="node"><title>10</title>
<path fill="none" stroke="#56d88a" stroke-width="2" d="M210.25,-324C210.25,-324 137.75,-324 137.75,-324 131.75,-324 125.75,-318 125.75,-312 125.75,-312 125.75,-300 125.75,-300 125.75,-294 131.75,-288 137.75,-288 137.75,-288 210.25,-288 210.25,-288 216.25,-288 222.25,-294 222.25,-300 222.25,-300 222.25,-312 222.25,-312 222.25,-318 216.25,-324 210.25,-324"/>
<text text-anchor="middle" x="174" y="-303.5" font-family="sans" font-size="10.00">preprocess_era5</text>
</g>
<!-- 4&#45;&gt;10 -->
<g id="edge19" class="edge"><title>4&#45;&gt;10</title>
<path fill="none" stroke="grey" stroke-width="2" d="M76.557,-359.876C93.658,-350.596 114.982,-339.025 133.319,-329.075"/>
<polygon fill="grey" stroke="grey" points="135.202,-332.035 142.322,-324.19 131.863,-325.883 135.202,-332.035"/>
</g>
<!-- 5&#45;&gt;1 -->
<g id="edge6" class="edge"><title>5&#45;&gt;1</title>
<path fill="none" stroke="grey" stroke-width="2" d="M199.027,-359.927C208.786,-349.82 221.036,-336.57 231,-324 266.991,-278.599 257.311,-250.305 304,-216 340.269,-189.351 389.951,-175.993 427.448,-169.362"/>
<polygon fill="grey" stroke="grey" points="428.387,-172.754 437.68,-167.664 427.242,-165.848 428.387,-172.754"/>
</g>
<!-- 11 -->
<g id="node12" class="node"><title>11</title>
<path fill="none" stroke="#56d8d0" stroke-width="2" d="M416.25,-324C416.25,-324 329.75,-324 329.75,-324 323.75,-324 317.75,-318 317.75,-312 317.75,-312 317.75,-300 317.75,-300 317.75,-294 323.75,-288 329.75,-288 329.75,-288 416.25,-288 416.25,-288 422.25,-288 428.25,-294 428.25,-300 428.25,-300 428.25,-312 428.25,-312 428.25,-318 422.25,-324 416.25,-324"/>
<text text-anchor="middle" x="373" y="-303.5" font-family="sans" font-size="10.00">preprocess_cmems</text>
</g>
<!-- 5&#45;&gt;11 -->
<g id="edge21" class="edge"><title>5&#45;&gt;11</title>
<path fill="none" stroke="grey" stroke-width="2" d="M228.724,-359.876C255.299,-350.137 288.762,-337.872 316.769,-327.608"/>
<polygon fill="grey" stroke="grey" points="318.243,-330.796 326.428,-324.068 315.834,-324.223 318.243,-330.796"/>
</g>
<!-- 6&#45;&gt;1 -->
<g id="edge7" class="edge"><title>6&#45;&gt;1</title>
<path fill="none" stroke="grey" stroke-width="2" d="M340.495,-359.937C328.018,-350.988 314.815,-338.79 308,-324 287.25,-278.963 300.58,-250.703 336,-216 360.769,-191.733 397.536,-178.457 427.848,-171.261"/>
<polygon fill="grey" stroke="grey" points="428.846,-174.625 437.854,-169.047 427.334,-167.791 428.846,-174.625"/>
</g>
<!-- 6&#45;&gt;11 -->
<g id="edge22" class="edge"><title>6&#45;&gt;11</title>
<path fill="none" stroke="grey" stroke-width="2" d="M370.742,-359.697C371.072,-351.983 371.469,-342.712 371.838,-334.112"/>
<polygon fill="grey" stroke="grey" points="375.335,-334.245 372.267,-324.104 368.342,-333.945 375.335,-334.245"/>
</g>
<!-- 7 -->
<g id="node8" class="node"><title>7</title>
<path fill="none" stroke="#ced856" stroke-width="2" d="M645.25,-396C645.25,-396 496.75,-396 496.75,-396 490.75,-396 484.75,-390 484.75,-384 484.75,-384 484.75,-372 484.75,-372 484.75,-366 490.75,-360 496.75,-360 496.75,-360 645.25,-360 645.25,-360 651.25,-360 657.25,-366 657.25,-372 657.25,-372 657.25,-384 657.25,-384 657.25,-390 651.25,-396 645.25,-396"/>
<text text-anchor="middle" x="571" y="-375.5" font-family="sans" font-size="10.00">create_random_DFMWAQ_folder</text>
</g>
<!-- 7&#45;&gt;1 -->
<g id="edge8" class="edge"><title>7&#45;&gt;1</title>
<path fill="none" stroke="grey" stroke-width="2" d="M584.269,-359.991C606.807,-328.881 647.224,-261.803 616,-216 597.731,-189.201 563.667,-175.952 534.329,-169.403"/>
<polygon fill="grey" stroke="grey" points="534.677,-165.903 524.182,-167.354 533.292,-172.764 534.677,-165.903"/>
</g>
<!-- 7&#45;&gt;11 -->
<g id="edge20" class="edge"><title>7&#45;&gt;11</title>
<path fill="none" stroke="grey" stroke-width="2" d="M522.817,-359.966C495.152,-350.185 460.223,-337.836 431.052,-327.524"/>
<polygon fill="grey" stroke="grey" points="431.994,-324.144 421.399,-324.111 429.661,-330.744 431.994,-324.144"/>
</g>
<!-- 8 -->
<g id="node9" class="node"><title>8</title>
<path fill="none" stroke="#88d856" stroke-width="2" d="M765,-324C765,-324 675,-324 675,-324 669,-324 663,-318 663,-312 663,-312 663,-300 663,-300 663,-294 669,-288 675,-288 675,-288 765,-288 765,-288 771,-288 777,-294 777,-300 777,-300 777,-312 777,-312 777,-318 771,-324 765,-324"/>
<text text-anchor="middle" x="720" y="-303.5" font-family="sans" font-size="10.00">preprocess_fes2012</text>
</g>
<!-- 8&#45;&gt;1 -->
<g id="edge9" class="edge"><title>8&#45;&gt;1</title>
<path fill="none" stroke="grey" stroke-width="2" d="M710.516,-287.699C698.662,-267.635 676.541,-234.903 649,-216 614.575,-192.372 569.087,-178.872 534.127,-171.417"/>
<polygon fill="grey" stroke="grey" points="534.599,-167.942 524.103,-169.383 533.207,-174.802 534.599,-167.942"/>
</g>
<!-- 12 -->
<g id="node13" class="node"><title>12</title>
<path fill="none" stroke="#68d856" stroke-width="2" d="M595,-252C595,-252 367,-252 367,-252 361,-252 355,-246 355,-240 355,-240 355,-228 355,-228 355,-222 361,-216 367,-216 367,-216 595,-216 595,-216 601,-216 607,-222 607,-228 607,-228 607,-240 607,-240 607,-246 601,-252 595,-252"/>
<text text-anchor="middle" x="481" y="-231.5" font-family="sans" font-size="10.00">copy_preprocessed_data_to_model_input_folder</text>
</g>
<!-- 8&#45;&gt;12 -->
<g id="edge25" class="edge"><title>8&#45;&gt;12</title>
<path fill="none" stroke="grey" stroke-width="2" d="M662.754,-288.233C628.671,-278.251 585.216,-265.524 549.343,-255.017"/>
<polygon fill="grey" stroke="grey" points="550.02,-251.568 539.44,-252.116 548.053,-258.286 550.02,-251.568"/>
</g>
<!-- 9 -->
<g id="node10" class="node"><title>9</title>
<path fill="none" stroke="#afd856" stroke-width="2" stroke-dasharray="5,2" d="M780,-396C780,-396 688,-396 688,-396 682,-396 676,-390 676,-384 676,-384 676,-372 676,-372 676,-366 682,-360 688,-360 688,-360 780,-360 780,-360 786,-360 792,-366 792,-372 792,-372 792,-384 792,-384 792,-390 786,-396 780,-396"/>
<text text-anchor="middle" x="734" y="-375.5" font-family="sans" font-size="10.00">check4fes2012_files</text>
</g>
<!-- 9&#45;&gt;8 -->
<g id="edge18" class="edge"><title>9&#45;&gt;8</title>
<path fill="none" stroke="grey" stroke-width="2" d="M730.539,-359.697C728.997,-351.983 727.142,-342.712 725.422,-334.112"/>
<polygon fill="grey" stroke="grey" points="728.814,-333.224 723.421,-324.104 721.95,-334.597 728.814,-333.224"/>
</g>
<!-- 10&#45;&gt;1 -->
<g id="edge10" class="edge"><title>10&#45;&gt;1</title>
<path fill="none" stroke="grey" stroke-width="2" d="M181.294,-287.987C190.961,-267.569 210,-233.858 237,-216 294.624,-177.887 375.068,-166.688 427.586,-163.663"/>
<polygon fill="grey" stroke="grey" points="427.887,-167.152 437.702,-163.161 427.541,-160.161 427.887,-167.152"/>
</g>
<!-- 10&#45;&gt;12 -->
<g id="edge24" class="edge"><title>10&#45;&gt;12</title>
<path fill="none" stroke="grey" stroke-width="2" d="M222.306,-293.985C268.9,-283.362 340.409,-267.057 396.445,-254.28"/>
<polygon fill="grey" stroke="grey" points="397.39,-257.654 406.362,-252.018 395.834,-250.829 397.39,-257.654"/>
</g>
<!-- 11&#45;&gt;1 -->
<g id="edge11" class="edge"><title>11&#45;&gt;1</title>
<path fill="none" stroke="grey" stroke-width="2" d="M359.737,-287.946C346.737,-268.994 330.902,-238.147 346,-216 364.269,-189.201 398.333,-175.952 427.671,-169.403"/>
<polygon fill="grey" stroke="grey" points="428.708,-172.764 437.818,-167.354 427.323,-165.903 428.708,-172.764"/>
</g>
<!-- 11&#45;&gt;12 -->
<g id="edge23" class="edge"><title>11&#45;&gt;12</title>
<path fill="none" stroke="grey" stroke-width="2" d="M399.42,-287.876C413.41,-278.808 430.776,-267.552 445.886,-257.759"/>
<polygon fill="grey" stroke="grey" points="447.991,-260.566 454.479,-252.19 444.183,-254.692 447.991,-260.566"/>
</g>
<!-- 12&#45;&gt;1 -->
<g id="edge12" class="edge"><title>12&#45;&gt;1</title>
<path fill="none" stroke="grey" stroke-width="2" d="M481,-215.697C481,-207.983 481,-198.712 481,-190.112"/>
<polygon fill="grey" stroke="grey" points="484.5,-190.104 481,-180.104 477.5,-190.104 484.5,-190.104"/>
</g>
<!-- 13&#45;&gt;1 -->
<g id="edge13" class="edge"><title>13&#45;&gt;1</title>
<path fill="none" stroke="grey" stroke-width="2" d="M916.904,-287.694C897.757,-266.982 862.67,-232.974 825,-216 728.973,-172.731 604.237,-163.813 534.403,-162.528"/>
<polygon fill="grey" stroke="grey" points="534.141,-159.024 524.094,-162.387 534.045,-166.024 534.141,-159.024"/>
</g>
<!-- 14&#45;&gt;0 -->
<g id="edge2" class="edge"><title>14&#45;&gt;0</title>
<path fill="none" stroke="grey" stroke-width="2" d="M525.416,-71.6966C518.342,-63.3046 509.717,-53.0705 501.955,-43.8613"/>
<polygon fill="grey" stroke="grey" points="504.537,-41.495 495.417,-36.1043 499.185,-46.0063 504.537,-41.495"/>
</g>
</g>
</svg>
